<svg xmlns="http://www.w3.org/2000/svg" viewBox="0 0 512 512" width="512" height="512">
  <defs>
    <filter id="dotShadow" x="-30%" y="-30%" width="160%" height="160%">
      <feDropShadow dx="0" dy="4" stdDeviation="4" flood-color="#000000" flood-opacity="0.22"/>
    </filter>
  </defs>
  <!-- Background with rounded corners -->
  <rect width="512" height="512" fill="#ffffff" rx="96"/>
  <!-- Top and bottom bright neon green stripes from user's official logo -->
  <rect x="0" y="0" width="512" height="46" fill="#00e500" rx="24"/>
  <rect x="0" y="466" width="512" height="46" fill="#00e500" rx="24"/>

  <!-- Main TripBnA.com Logo centered -->
  <g transform="translate(18, 75) scale(0.435)">
    <!-- T: Large Black Serif Letter -->
    <text x="80" y="320" font-family="'Times New Roman', Georgia, serif" font-size="210" font-weight="900" fill="#111111">T</text>
    <!-- r: Green Bold Letter -->
    <text x="210" y="320" font-family="-apple-system, BlinkMacSystemFont, sans-serif" font-size="190" font-weight="900" fill="#008037">r</text>
    <!-- i: Yellow / Golden Bold Letter -->
    <text x="315" y="320" font-family="-apple-system, BlinkMacSystemFont, sans-serif" font-size="190" font-weight="900" fill="#f59e0b">i</text>
    <!-- p: Black Lowercase Letter with sweeping tail -->
    <text x="375" y="320" font-family="'Times New Roman', Georgia, serif" font-size="205" font-weight="900" fill="#111111">p</text>
    <path d="M 400 325 C 385 365 355 405 305 410 C 265 415 220 380 180 340" fill="none" stroke="#111111" stroke-width="9" stroke-linecap="round"/>

    <!-- Three brand dots (Black, Green, Yellow) -->
    <g filter="url(#dotShadow)">
      <circle cx="85" cy="425" r="40" fill="#ffffff"/>
      <circle cx="85" cy="425" r="34" fill="#111111"/>
      <circle cx="75" cy="415" r="8" fill="#ffffff" fill-opacity="0.15"/>
    </g>
    <g filter="url(#dotShadow)">
      <circle cx="190" cy="432" r="34" fill="#ffffff"/>
      <circle cx="190" cy="432" r="28" fill="#008037"/>
      <circle cx="182" cy="424" r="7" fill="#ffffff" fill-opacity="0.25"/>
    </g>
    <g filter="url(#dotShadow)">
      <circle cx="280" cy="412" r="28" fill="#ffffff"/>
      <circle cx="280" cy="412" r="22" fill="#f59e0b"/>
      <circle cx="274" cy="406" r="5" fill="#ffffff" fill-opacity="0.3"/>
    </g>

    <!-- B: Bold Green -->
    <text x="475" y="320" font-family="-apple-system, BlinkMacSystemFont, sans-serif" font-size="220" font-weight="900" fill="#008037">B</text>
    <!-- n: Yellow / Gold -->
    <text x="640" y="320" font-family="-apple-system, BlinkMacSystemFont, sans-serif" font-size="190" font-weight="900" fill="#f59e0b">n</text>
    <!-- A: Large Black Serif -->
    <text x="750" y="320" font-family="'Times New Roman', Georgia, serif" font-size="235" font-weight="900" fill="#111111">A</text>
    <!-- .com -->
    <text x="945" y="320" font-family="-apple-system, BlinkMacSystemFont, sans-serif" font-size="95" font-weight="900" fill="#111111">.com</text>

    <!-- Double Underline Stripes under BnA -->
    <rect x="450" y="340" width="165" height="11" fill="#008037" rx="3"/>
    <rect x="620" y="340" width="125" height="11" fill="#f59e0b" rx="3"/>
    <rect x="750" y="340" width="200" height="11" fill="#111111" rx="3"/>

    <rect x="450" y="363" width="165" height="11" fill="#008037" rx="3"/>
    <rect x="620" y="363" width="125" height="11" fill="#f59e0b" rx="3"/>
    <rect x="750" y="363" width="200" height="11" fill="#111111" rx="3"/>
  </g>
</svg>